<?xml version="1.0" encoding="iso-8859-1"?>
<!-- Generator: Adobe Illustrator 16.0.0, SVG Export Plug-In . SVG Version: 6.00 Build 0)  -->
<!DOCTYPE svg PUBLIC "-//W3C//DTD SVG 1.1//EN" "http://www.w3.org/Graphics/SVG/1.1/DTD/svg11.dtd">
<svg version="1.1" id="Capa_1" xmlns="http://www.w3.org/2000/svg" xmlns:xlink="http://www.w3.org/1999/xlink" x="0px" y="0px"
	 width="181.963px" height="181.963px" viewBox="0 0 181.963 181.963" style="enable-background:new 0 0 181.963 181.963;"
	 xml:space="preserve">
<g>
	<g>
		<path d="M174.353,65.187c-0.429,0-3.939,0-7.818,0h-11.653c-3.879,0-7.045,2.278-7.045,5.065c0,2.793,0,8.237,0,12.104v41.438
			c0-10.815-15.802-19.563-35.298-19.563H69.455c-19.5,0-35.306,8.748-35.306,19.563V82.349c0-3.867,0-9.312,0-12.104
			c0-2.779-3.17-5.065-7.049-5.065H15.45c-3.879,0-7.386,0-7.818,0c-0.415,0-0.759,2.278-0.759,5.065
			c0,2.793,3.17,5.063,7.049,5.063h1.529c3.879,0,7.051,3.174,7.051,7.041v92.581c0,3.88,2.621,7.033,5.825,7.033
			c3.202,0,5.823-3.153,5.823-7.033v-41.345h113.679v41.345c0,3.88,2.62,7.033,5.826,7.033c3.202,0,5.827-3.153,5.827-7.033V82.349
			c0-3.867,3.166-7.041,7.045-7.041h1.522c3.88,0,7.041-2.262,7.041-5.063C175.103,67.465,174.766,65.187,174.353,65.187z"/>
		<path d="M69.767,98.496h43.083c9.754,0,18.57,2.181,24.95,5.719h4.737V80.303c0-20.957,0-80.303-45.027-80.303H84.464
			C39.429,0,39.429,59.358,39.429,80.303v23.912h5.392C51.211,100.677,60.035,98.496,69.767,98.496z M102.765,27.868
			c0-1.932,0.797-3.515,1.779-3.515c0.981,0,1.755,1.583,1.755,3.515v48.459c0,1.948-0.79,3.535-1.755,3.535
			c-0.982,0-1.779-1.587-1.779-3.535V27.868z M89.213,27.868c0-1.932,0.786-3.515,1.768-3.515c0.979,0,1.77,1.583,1.77,3.515v48.459
			c0,1.948-0.79,3.535-1.77,3.535c-0.981,0-1.768-1.587-1.768-3.535V27.868z M75.67,27.868c0-1.932,0.788-3.515,1.761-3.515
			c0.972,0,1.765,1.583,1.765,3.515v48.459c0,1.948-0.785,3.535-1.765,3.535c-0.982,0-1.761-1.587-1.761-3.535V27.868z"/>
	</g>
</g>
<g>
</g>
<g>
</g>
<g>
</g>
<g>
</g>
<g>
</g>
<g>
</g>
<g>
</g>
<g>
</g>
<g>
</g>
<g>
</g>
<g>
</g>
<g>
</g>
<g>
</g>
<g>
</g>
<g>
</g>
</svg>
